<svg id="Capa_1" data-name="Capa 1" xmlns="http://www.w3.org/2000/svg" xmlns:xlink="http://www.w3.org/1999/xlink" viewBox="0 0 1622.59 425.69"><defs><style>.cls-1{fill:none;}.cls-2{clip-path:url(#clip-path);}.cls-3{fill:#ff0303;}.cls-4{fill:#140128;}.cls-5{font-size:116.12px;fill:#1e073d;font-family:Branding-Medium, Branding;}.cls-6{letter-spacing:0em;}.cls-7{letter-spacing:0em;}.cls-8{letter-spacing:-0.01em;}.cls-9{letter-spacing:0em;}.cls-10{letter-spacing:-0.01em;}.cls-11{fill:#0e0125;}.cls-12{fill:#fcfcfd;}.cls-13{fill:#fdfcfd;}.cls-14{fill:#fbfbfc;}.cls-15{fill:#0e0124;}</style><clipPath id="clip-path" transform="translate(-150.94 -371.91)"><rect class="cls-1" width="1920" height="1080"/></clipPath></defs><title>logo mozorun</title><g class="cls-2"><path class="cls-3" d="M541.21,647.74H510.77V433.42c10.82,0,21.42-.34,32,.09,12.37.51,24.71,1.89,37.08,2.45,2.68.12,5.45-2.38,8.19-2.41,18.35-.22,36.71-.44,55.06,0,24.34.57,43.61,19.92,43.69,44,.2,55.47.06,110.94,0,166.41,0,1.09-.17,2.18-.29,3.67H655.78v-8q0-79.13,0-158.26c0-12.79-4.73-17.44-17.71-17.46-6.12,0-12.25.28-18.35-.09-4.86-.29-6.15,1.55-6.12,6.22.18,27.85.09,55.7.09,83.54q0,43.13,0,86.26v7.79h-31v-7.33q0-79.47,0-158.94c0-12.94-4.54-17.44-17.6-17.46h-15c-8.93,0-8.94,0-8.94,8.63q0,83.55,0,167.09Z" transform="translate(-150.94 -371.91)"/><path class="cls-4" d="M1344.29,647.89h-30.95v-214a5,5,0,0,1,2-.76c19.25,0,38.52-.49,57.75.12,23.75.75,42.15,18.42,43.43,42.13a415.08,415.08,0,0,1-.16,52.23c-.68,9.29-5.08,18.3-8.4,29.44,9.5,10.57,9.23,26.22,9,41.94-.2,14,0,28.07,0,42.1v6.86h-31.64v-6.47c0-17.2.07-34.4,0-51.6-.07-13.3-7.93-20.56-21-19.71-4.07.26-8.14.73-12.21.67-5.89-.09-7.85,2.62-7.79,8.35.22,20.37.09,40.74.09,61.11Zm.41-183.59v77.29c9.65-.54,18.91-.65,28.06-1.69a14.19,14.19,0,0,0,12.34-14.13q.43-23.4,0-46.81a14.45,14.45,0,0,0-13.5-14.53c-8.75-.54-17.56-.13-26.92-.13" transform="translate(-150.94 -371.91)"/><path class="cls-3" d="M764.33,540.61c0-19.92-.05-39.84,0-59.76.1-30.39,21.88-52.74,51.18-52.61,28.79.13,50.56,22.75,50.57,52.61q0,60.44,0,120.88c0,26.37-19.18,48.16-44.46,50.88-26.92,2.9-50.37-13.38-56.07-39.45-1.28-5.88-1.12-12.14-1.17-18.23-.14-18.11,0-36.22-.05-54.33m31-.58c0,20.15-.22,40.3.17,60.44a27.93,27.93,0,0,0,3.74,13.36c4.58,7.57,13.85,10.24,22.07,7.54,8.48-2.79,13.73-10.43,13.74-20.48q.07-59.77,0-119.53c0-13.47-8.06-22.82-19.7-23-11.83-.17-20,9.29-20,23.26q0,29.21,0,58.41" transform="translate(-150.94 -371.91)"/><path class="cls-3" d="M1130.22,539.74c0-21.28-.6-42.58.16-63.83.9-25.21,21-45.49,45.71-47.53,25.65-2.11,48.54,14,54.38,38.51A62.31,62.31,0,0,1,1232,481c.11,39.84.3,79.69,0,119.53-.28,36-32.07,60.19-65.6,50.41-21.71-6.33-36-25.55-36.29-49.43-.24-20.6,0-41.2,0-61.8Zm70.66.68c0-19.92,0-39.84,0-59.77,0-13-8.18-22.13-19.68-22.3s-20,9.08-20.06,21.92q-.14,60.11,0,120.21a27.1,27.1,0,0,0,1.29,8.65,19.72,19.72,0,0,0,21.41,13,19.92,19.92,0,0,0,17-19.93c.2-20.6.06-41.2.06-61.8" transform="translate(-150.94 -371.91)"/><path class="cls-4" d="M1700.34,464.15V647.8h-31.11V433.52c1.83-.15,3.56-.42,5.29-.42,17.22,0,34.44-.1,51.65,0,28,.13,47.32,19.59,47.34,47.59q0,80.14,0,160.27v6.68h-31.66v-7.38q0-78.1,0-156.2c0-14.76-5.19-19.91-20.07-19.91h-21.45" transform="translate(-150.94 -371.91)"/><path class="cls-4" d="M1593.53,647.42c-22.41,0-44.65,1.42-66.61-.41-21.08-1.76-37.22-20.77-37.38-41.92-.43-56.59-.16-113.18-.15-169.76a8.36,8.36,0,0,1,.52-1.76h30.91v7.16q0,78.09,0,156.19c0,15.13,5.14,20.18,20.52,20.18h20.9V433.61h31.29Z" transform="translate(-150.94 -371.91)"/><path class="cls-3" d="M1019.79,463.86H947.61v-30h124.84L978.83,616.8h70.84v30.71H928l91.76-183.65" transform="translate(-150.94 -371.91)"/></g><text class="cls-5" transform="translate(417.87 401.42) scale(1.01 1)">Mou<tspan class="cls-6" x="223.19" y="0">n</tspan><tspan class="cls-7" x="288.79" y="0">tain </tspan><tspan class="cls-8" x="516.27" y="0">f</tspan><tspan class="cls-9" x="552.39" y="0">ood deli</tspan><tspan class="cls-10" x="959.85" y="0">v</tspan><tspan x="1016.17" y="0">ery</tspan></text><g class="cls-2"><path class="cls-11" d="M151.46,501.59C145.35,417.06,231.25,351.41,317,377.83c78.7,24.24,112.27,108.33,72.92,184.6-20,38.79-43.77,75.38-69.73,110.37-3.88,5.23-7.45,10.71-11.44,15.85-16.77,21.57-45.86,22.44-62.39.85a954.54,954.54,0,0,1-80.54-124.13c-11-20.24-16.72-42.15-14.37-63.79" transform="translate(-150.94 -371.91)"/><path class="cls-12" d="M293.83,472.69c.21-26.35,24.12-48.33,49-46.28,5,.41,7.84,3,8.94,8.11,5.35,24.75-13.86,52.58-38.46,55a15.28,15.28,0,0,0-11.46,6.32q-33.66,42.36-67.64,84.46c-6.54,8.13-13.25,8.24-20.31.72-5.83-6.21-5.54-11.89,1.15-18.91q36.55-38.35,73.22-76.59c3.87-4,7.56-7.78,5.6-12.83" transform="translate(-150.94 -371.91)"/><path class="cls-13" d="M220.94,429.47c7.24,7.76,14.31,15.71,21.79,23.22,4.67,4.68,4.56,8.42-.07,13-15.53,15.45-12.67,16.45-28.27.35-4.79-4.95-9.67-9.81-14.81-15-1.21,2.59.52,3.38,1.4,4.37,5.84,6.62,12.34,12.74,17.49,19.88,7.7,10.66,17.77,15.38,30.24,14.62,7.67-.47,10.68,5.34,14.92,9.69a2.44,2.44,0,0,1-.18,3.72c-1.23,1.21-2.87,1.1-3.57-.2-5.12-9.41-14.38-7.56-22.46-8.79a27.46,27.46,0,0,1-17.28-9.23q-11.69-13.4-23.53-26.66c-3-3.42-5.22-7.08-1.13-11,3.88-3.68,7.22-1.05,10.09,1.91,7.53,7.75,15,15.59,22.54,23.5,2.63-3.17.43-3.89-.5-4.85-7.43-7.68-15-15.25-22.35-23-1.4-1.46-4.53-2.93-1.8-5.6s4.1.48,5.55,1.94c7.06,7.06,13.94,14.3,21,21.34,1.34,1.33,2.16,3.75,5,3.29.87-2.41-1.25-3.22-2.37-4.38-7.09-7.35-14.33-14.57-21.34-22-1.44-1.53-5.34-3-2.12-6,2.9-2.7,4.45.86,6,2.44,7.09,7,14,14.25,21,21.31,1.17,1.17,1.86,3.36,4.35,2.78.47-3-2.09-3.93-3.52-5.43-6.4-6.74-13-13.3-19.44-20-2.67-2.75-4.29-5.73-.92-9.1,3-3,6.28-2.7,9.22,0,10.12,9.19,20.3,18.34,30.16,27.82,6.13,5.9,7,14.16,7.3,22.13.22,5.75,1.17,10.53,6.09,14,1.49,1,3.81,2.75,1.56,5.11s-3.67,0-5.19-1.28c-4.6-3.78-7.79-7.88-7.52-14.76.44-11.3-3.39-20.81-12.73-28.1-8.47-6.6-16-14.44-24-21.74l-.69.63" transform="translate(-150.94 -371.91)"/><path class="cls-14" d="M338.34,584.85c-3.8.15-6.66-1.58-9.1-4.31q-22.33-24.94-44.66-49.9c-1.37-1.54-4.18-3.33-1.3-5.7s4.09,1,5.43,2.44q21.51,23.8,42.82,47.8c3.5,3.94,6.85,6.25,11.54,1.66,4.39-4.3,3.69-7.8-.6-11.74q-23.3-21.44-46.25-43.27c-2-1.95-7.8-3.63-4.23-7.63,3.17-3.56,5.38,1.74,7.39,3.58,15.93,14.54,31.64,29.34,47.46,44,4,3.67,5.95,8.14,3.82,13.22-2.24,5.34-6.12,9.33-12.31,9.83" transform="translate(-150.94 -371.91)"/><path class="cls-15" d="M299.12,473.65c0-23.32,20-42.64,42-41.9,3.75.13,5.23,1.77,5.75,5.41,3.28,23-13.44,45-36.23,47.23A15.61,15.61,0,0,0,299,490.75c-22.71,28.62-45.65,57.05-68.44,85.61-3.51,4.4-6.8,6.78-11.9,2.06-4.65-4.32-4.44-7.81-.09-12.33,24.83-25.76,49.4-51.78,74.25-77.52,4.47-4.63,7.8-9.2,6.28-14.92" transform="translate(-150.94 -371.91)"/></g></svg>